<?xml version="1.0" encoding="UTF-8" standalone="no"?>
<!DOCTYPE svg PUBLIC "-//W3C//DTD SVG 1.1//EN"
 "http://www.w3.org/Graphics/SVG/1.1/DTD/svg11.dtd">
<!-- Generated by graphviz version 2.38.0 (20140413.2041)
 -->
<!-- Title: todoapp Pages: 1 -->
<svg width="288pt" height="212pt"
 viewBox="0.00 0.00 288.00 211.52" xmlns="http://www.w3.org/2000/svg" xmlns:xlink="http://www.w3.org/1999/xlink">
<g id="graph0" class="graph" transform="scale(0.415557 0.415557) rotate(0) translate(4 505)">
<title>todoapp</title>
<polygon fill="white" stroke="none" points="-4,4 -4,-505 689.046,-505 689.046,4 -4,4"/>
<text text-anchor="middle" x="342.523" y="-485.8" font-family="Times,serif" font-size="14.00">NTE|TBE Todo List</text>
<g id="clust1" class="cluster"><title>cluster1</title>
<polygon fill="none" stroke="black" points="166.046,-79 166.046,-154 566.046,-154 566.046,-79 166.046,-79"/>
<text text-anchor="middle" x="366.046" y="-138.8" font-family="Times,serif" font-size="14.00">todolist</text>
</g>
<!-- placeholder -->
<g id="node1" class="node"><title>placeholder</title>
<ellipse fill="none" stroke="black" cx="136.046" cy="-460" rx="65.7887" ry="18"/>
<text text-anchor="middle" x="136.046" y="-456.3" font-family="Times,serif" font-size="14.00">placeholder</text>
</g>
<!-- task -->
<g id="node2" class="node"><title>task</title>
<polygon fill="none" stroke="black" points="180.623,-391 109.71,-391 91.4683,-355 162.381,-355 180.623,-391"/>
<text text-anchor="middle" x="136.046" y="-369.3" font-family="Times,serif" font-size="14.00">task</text>
</g>
<!-- placeholder&#45;&gt;task -->
<g id="edge1" class="edge"><title>placeholder&#45;&gt;task</title>
<path fill="none" stroke="black" d="M136.046,-441.799C136.046,-430.163 136.046,-414.548 136.046,-401.237"/>
<polygon fill="black" stroke="black" points="139.546,-401.175 136.046,-391.175 132.546,-401.175 139.546,-401.175"/>
<text text-anchor="middle" x="220.546" y="-412.8" font-family="Times,serif" font-size="14.00">&quot;write here what to do&quot;</text>
</g>
<!-- disabled -->
<g id="node3" class="node"><title>disabled</title>
<ellipse fill="none" stroke="black" cx="50.0456" cy="-286" rx="50.0912" ry="18"/>
<text text-anchor="middle" x="50.0456" y="-282.3" font-family="Times,serif" font-size="14.00">disabled</text>
</g>
<!-- task&#45;&gt;disabled -->
<g id="edge2" class="edge"><title>task&#45;&gt;disabled</title>
<path fill="none" stroke="black" d="M95.2878,-363.171C80.7016,-357.962 65.5377,-349.778 56.0456,-337 51.2605,-330.559 49.1353,-322.309 48.3778,-314.376"/>
<polygon fill="black" stroke="black" points="51.8739,-314.193 48.0611,-304.308 44.8774,-314.413 51.8739,-314.193"/>
<text text-anchor="middle" x="89.0456" y="-325.8" font-family="Times,serif" font-size="14.00">onKeyUp</text>
</g>
<!-- add -->
<g id="node4" class="node"><title>add</title>
<polygon fill="none" stroke="black" points="181.546,-231 90.5456,-231 90.5456,-195 181.546,-195 181.546,-231"/>
<text text-anchor="middle" x="136.046" y="-209.3" font-family="Times,serif" font-size="14.00">Add to list</text>
</g>
<!-- task&#45;&gt;add -->
<g id="edge4" class="edge"><title>task&#45;&gt;add</title>
<path fill="none" stroke="black" d="M136.046,-354.79C136.046,-327.485 136.046,-273.994 136.046,-241.38"/>
<polygon fill="black" stroke="black" points="139.546,-241.188 136.046,-231.188 132.546,-241.188 139.546,-241.188"/>
<text text-anchor="middle" x="183.046" y="-282.3" font-family="Times,serif" font-size="14.00">onKeyReturn</text>
</g>
<!-- done -->
<g id="node6" class="node"><title>done</title>
<polygon fill="none" stroke="black" points="271.746,-123 194.275,-123 174.346,-87 251.816,-87 271.746,-123"/>
<text text-anchor="middle" x="223.046" y="-101.3" font-family="Times,serif" font-size="14.00">done</text>
</g>
<!-- task&#45;&gt;done -->
<g id="edge7" class="edge"><title>task&#45;&gt;done</title>
<path fill="none" stroke="black" d="M165.485,-360.561C188.709,-349.794 219.525,-331.225 234.046,-304 256.932,-261.089 251.212,-205.246 241.487,-163.81"/>
<polygon fill="black" stroke="black" points="244.824,-162.728 239.013,-153.869 238.031,-164.418 244.824,-162.728"/>
</g>
<!-- disabled&#45;&gt;add -->
<g id="edge3" class="edge"><title>disabled&#45;&gt;add</title>
<path fill="none" stroke="black" d="M69.1317,-269.243C80.3355,-259.993 94.715,-248.122 107.271,-237.756"/>
<polygon fill="black" stroke="black" points="109.724,-240.27 115.207,-231.204 105.267,-234.872 109.724,-240.27"/>
</g>
<!-- add&#45;&gt;done -->
<g id="edge8" class="edge"><title>add&#45;&gt;done</title>
<path fill="none" stroke="black" d="M150.024,-194.969C157.535,-185.817 167.271,-173.956 177.171,-161.894"/>
<polygon fill="black" stroke="black" points="180.039,-163.915 183.678,-153.965 174.628,-159.474 180.039,-163.915"/>
<text text-anchor="middle" x="204.546" y="-165.8" font-family="Times,serif" font-size="14.00">onClick</text>
</g>
<!-- remove -->
<g id="node5" class="node"><title>remove</title>
<polygon fill="none" stroke="black" points="558.046,-123 488.046,-123 488.046,-87 558.046,-87 558.046,-123"/>
<text text-anchor="middle" x="523.046" y="-101.3" font-family="Times,serif" font-size="14.00">remove</text>
</g>
<!-- item -->
<g id="node8" class="node"><title>item</title>
<polygon fill="none" stroke="black" points="685.046,-123 631.046,-123 631.046,-87 685.046,-87 685.046,-123"/>
<text text-anchor="middle" x="658.046" y="-101.3" font-family="Times,serif" font-size="14.00">item</text>
</g>
<!-- remove&#45;&gt;item -->
<g id="edge9" class="edge"><title>remove&#45;&gt;item</title>
<path fill="none" stroke="black" d="M558.163,-105C577.367,-105 601.155,-105 620.699,-105"/>
<polygon fill="black" stroke="black" points="620.773,-108.5 630.773,-105 620.773,-101.5 620.773,-108.5"/>
<text text-anchor="middle" x="594.546" y="-111.8" font-family="Times,serif" font-size="14.00">onClick</text>
</g>
<!-- textDecoration -->
<g id="node9" class="node"><title>textDecoration</title>
<ellipse fill="none" stroke="black" cx="380.046" cy="-18" rx="80.6858" ry="18"/>
<text text-anchor="middle" x="380.046" y="-14.3" font-family="Times,serif" font-size="14.00">textDecoration</text>
</g>
<!-- done&#45;&gt;textDecoration -->
<g id="edge5" class="edge"><title>done&#45;&gt;textDecoration</title>
<path fill="none" stroke="black" d="M252.576,-88.0122C277.794,-74.3589 314.239,-54.6277 341.706,-39.7571"/>
<polygon fill="black" stroke="black" points="343.52,-42.7551 350.647,-34.9162 340.187,-36.5994 343.52,-42.7551"/>
<text text-anchor="middle" x="338.546" y="-57.8" font-family="Times,serif" font-size="14.00">onClick</text>
</g>
<!-- description -->
<g id="node7" class="node"><title>description</title>
<polygon fill="none" stroke="black" points="432.698,-123 327.394,-123 289.891,-87 470.2,-87 432.698,-123"/>
<text text-anchor="middle" x="380.046" y="-101.3" font-family="Times,serif" font-size="14.00">description</text>
</g>
<!-- item&#45;&gt;done -->
<g id="edge10" class="edge"><title>item&#45;&gt;done</title>
<path fill="none" stroke="black" d="M640.328,-123.033C622.23,-140.055 592.406,-164.425 561.046,-174.5 503.71,-192.92 345.47,-198.055 290.046,-174.5 282.078,-171.114 274.599,-166.265 267.734,-160.682"/>
<polygon fill="black" stroke="black" points="269.782,-157.821 259.966,-153.833 265.152,-163.071 269.782,-157.821"/>
</g>
<!-- item&#45;&gt;textDecoration -->
<g id="edge11" class="edge"><title>item&#45;&gt;textDecoration</title>
<path fill="none" stroke="black" d="M630.884,-95.6951C585.809,-81.9133 494.674,-54.0484 435.553,-35.9718"/>
<polygon fill="black" stroke="black" points="436.216,-32.5145 425.629,-32.9375 434.169,-39.2085 436.216,-32.5145"/>
</g>
<!-- textDecoration&#45;&gt;description -->
<g id="edge6" class="edge"><title>textDecoration&#45;&gt;description</title>
<path fill="none" stroke="black" d="M380.046,-36.1754C380.046,-47.806 380.046,-63.4194 380.046,-76.7339"/>
<polygon fill="black" stroke="black" points="376.546,-76.7989 380.046,-86.799 383.546,-76.799 376.546,-76.7989"/>
</g>
</g>
</svg>
